<?xml version="1.0" encoding="utf-8"?>
<!-- Generator: Adobe Illustrator 22.1.0, SVG Export Plug-In . SVG Version: 6.00 Build 0)  -->
<svg version="1.1" id="Layer_1" xmlns="http://www.w3.org/2000/svg" xmlns:xlink="http://www.w3.org/1999/xlink" x="0px" y="0px"
	 viewBox="0 0 20 20" width="20px" height="20px" xml:space="preserve">
<style type="text/css">
	.st0{fill:#FFFFFF;}
	.st1{fill:#0078d4;}
</style>
<g>
	<path class="st0" d="M10,0C4.5,0,0,4.5,0,10s4.5,10,10,10s10-4.5,10-10S15.5,0,10,0z M10,18c-2.5,0-4.7-1.2-6.2-3l0,0l0.3-0.1
		c0.3-0.3-0.2-1,0-1.2c0.5-0.4,0.3-0.9-0.1-1.3c-0.1-0.2-0.9-1-1-0.8c0-0.4-0.1-0.7-0.3-1c-0.2-0.4-0.5-0.6-0.6-1
		c0.1-0.2,0.1-0.6,0-0.7c0.3-2.1,1.5-4,3.1-5.2c0.1,0,0.2,0.1,0.4,0c0.1,0,0.3-0.4,0.4-0.6c0.5-0.3,1.1-0.5,1.6-0.7
		C7.4,2.5,7.3,2.6,7.3,2.6C7,2.7,6.9,3.2,7,3.2c0.2,0,1.1-0.7,1.4-0.6C8.8,2.8,9.6,2.3,9.9,2H10c1.1,0,2.1,0.2,3,0.6
		c-0.1,0.1-0.2,0.1-0.2,0.3c-0.1,0.1-0.1,0.3-0.3,0.4c-0.1,0.2-0.4,0.1-0.3-0.1c0.1-0.2,0.3-0.3-0.1-0.3c-0.4-0.1-0.6-0.3-1,0
		c-0.2,0.1-0.3,0.2-0.3,0.4c-0.2,0.3-0.5,0.3-0.6,0.4s0.1,0.5,0.3,0.3c0.1-0.1,0.8,0.7,0.7,0.1c-0.1-0.4,0.2-0.7,0.2-0.9
		s0.3-0.1,0.2,0c-0.1,0.2-0.2,0.6,0.1,0.6c0.2,0,0.5-0.3,0.5-0.1C12.1,3.5,11.9,4,11.9,4c-0.1,0.1-0.3,0-0.2,0.3s-0.4,0.2-0.5,0.3
		s-0.4-0.1-0.4,0c-0.2-0.1,0-0.3-0.1-0.4c-0.2,0.2-0.1,0.5-0.3,0.5C10,4.7,9.8,4.8,9.7,5C9.6,5.2,9.1,5.3,9,5.3
		c0.3,0,0.3,0.3,0.3,0.4c0,0.4-0.9,0-0.9,0.2S8.2,6.5,8.2,6.7c0,0.1,0.4,0.2,0.4,0.3C8.8,6.8,9,6.7,9.3,6.7l0.2-0.4
		c0.1-0.1,0.2-0.1,0.3-0.2S9.9,5.9,10,5.8c0,0,0.6-0.1,0.7-0.1c0.2,0.1,0.4,0.3,0.5,0.5c0.1,0,0.3,0.1,0.3,0.2
		c0.1,0.2-0.1,0.2,0,0.3c0.1,0.3,0.2-0.3,0.1-0.3V6.3l-0.5-0.5c-0.2-0.3,0.6,0.2,0.7,0.3c0.1,0,0.3,0.6,0.7,0.5
		c0.2-0.1,0-0.2,0.1-0.3c0.2-0.1,0.3,0,0.4-0.1c-0.3,0.3,0.3,0.7,0.2,0.6c0.2,0.1,0.3,0,0.3,0c0.1,0,0.5,0,0.6-0.1
		c0,0.3,0,0.6-0.1,0.8c-0.5,0.1-1,0.1-1.4-0.1c-0.4-0.3-0.3,0.3-0.5,0.3c-0.3,0.1-0.9-0.5-1.3-0.5c0.2,0,0-0.5,0-0.5
		c-0.2-0.2-1,0.1-1.3,0.1C8.9,6.9,8.5,7,8.1,7.3C7.8,7.4,7.8,7.8,7.6,7.9C7.5,8,7.3,8,7.2,8.1C6.9,8.3,6.7,8.6,6.5,8.9
		c-0.1,0.2,0,0.4,0,0.6c0,0.1-0.1,0.2-0.1,0.3c-0.2,1,0.4,1.9,1.3,2.1c0.3,0,0.6,0.2,0.8,0.1s0.4-0.3,0.7-0.3s0.2,0.5,0.7,0.3
		c0.3-0.1,0.3,0.2,0.3,0.3c-0.1,0.4-0.3,0.6,0.1,0.8c0.2,0.3,0.4,0.4,0.4,0.8c0,0.2,0.2,0.5,0,0.6s-0.3,0.4-0.3,0.6s0.3,0.4,0.4,0.6
		c0.2,0.2,0.1,0.4,0.2,0.6c0.2,0.2,0.3,0.4,0.3,0.6c0.2,0.3,0.9,0,1.1,0c0.6,0.1,0.9-0.8,1.3-1.1c0.3-0.2,0.3-0.5,0.5-0.8
		c0.3-0.2,0.6-0.3,0.6-0.7s-0.3-1-0.1-1.3s1.9-2.8,1.4-3c-0.1-0.1-0.6,0.3-0.8,0.3c-0.3-0.2-0.6-0.5-0.8-0.8
		c-0.3-0.3-0.3-0.8-0.6-1.1c-0.1-0.2-0.5-0.6-0.5-0.8c0,0,0.2,0.3,0.3,0.3l0,0c0.2,0.2,0.4,0.5,0.6,0.7c0.2,0.1,0.2,0.5,0.4,0.7
		c0.4,0.4,0.3,1.3,0.9,0.8c0.5-0.3,1.3-1.1,1.1-1.8c-0.1-0.4-0.7-0.2-0.8,0c-0.2-0.1-0.8-0.8-0.6-0.9c0.1,0,0.4,0.3,0.5,0.4
		c0.3,0.1,0.4-0.2,0.5,0c0.2,0.2,0.9-0.2,1.2-0.3C17.9,8.3,18,9.1,18,10C18,14.4,14.4,18,10,18z M13.8,6.2c-0.2-0.1-0.8-0.3-0.8,0
		c0,0.1-0.6,0-0.5-0.2s0.1-0.3,0.2-0.5c0.2-0.3,0.3-0.1,0.3,0c0,0.3,0.3-0.3,0.5-0.3c0.1,0-0.1,0.2-0.1,0.2c0.1,0.2,0.3,0.4,0.5,0.4
		C14.3,6,14,6.3,13.8,6.2z"/>
	<path class="st0" d="M11.3,6.8c-0.1,0-0.3,0-0.3,0.1C11.2,7.1,11.3,6.8,11.3,6.8z"/>
	<path class="st0" d="M11.4,6.4l0.1,0.1C11.6,6.5,11.5,6.4,11.4,6.4z"/>
	<path class="st0" d="M8.8,4.7C8.8,4.6,9,4.6,9,4.5s0,0,0.1-0.1c0,0,0-0.1-0.1-0.1c0,0-0.1,0-0.1,0.1H8.8v0.1V4.7
		C8.6,4.7,8.7,4.8,8.8,4.7z"/>
	<path class="st0" d="M9.1,4.9C9.2,5,9.8,4.7,9.7,4.7c0.2-0.1,0-0.1-0.1-0.2c0-0.2-0.1-0.4-0.2-0.6l0.1-0.1C9.3,3.7,9.2,4.3,9.2,4.3
		h0.1c0.1,0-0.1,0.1-0.1,0.1c0.1,0.2,0,0.2,0,0.3S9.1,4.7,9.1,4.9C9,4.7,9.3,4.7,9.3,4.7S9,4.8,9.1,4.9z"/>
</g>
</svg>
